<svg xmlns="http://www.w3.org/2000/svg" viewBox="0 0 500 500"><defs><style>.cls-1{isolation:isolate;}.cls-2,.cls-6{fill:#fff;}.cls-3{fill:#ff458f;}.cls-4{fill:#ffc800;}.cls-5{fill:#ffa000;}.cls-6{opacity:0.4;mix-blend-mode:screen;}.cls-7{fill:#ac125b;}.cls-8{fill:#c1c1c1;mix-blend-mode:multiply;}.cls-9{fill:#c692f1;}.cls-10{fill:#009bcd;}.cls-11{fill:#00dfb3;}.cls-12{fill:#37f8cb;}.cls-13{fill:#ff97c8;}.cls-14{fill:#e1c0ff;}</style></defs><g class="cls-1"><g id="BACKGROUND"><rect class="cls-2" width="500" height="500"/></g><g id="OBJECTS"><path class="cls-3" d="M351.64,163.76,299.27,181.3l-14.2,4.76v0l.65-8.39,1-12.39.81-10.34.65-8.24,1.23-15.56.1-1.27.87-11.14.66-8.42,1-13,11.77,13.11.31.35,12,13.36,1.92,2.15,8,8.89,5.26,5.87,3.13,3.48L342,153Z"/><path class="cls-4" d="M296.78,161.14a9.41,9.41,0,0,1-10.07,4.11l.81-10.34.65-8.24a9.43,9.43,0,0,1,8.61,14.47Z"/><path class="cls-4" d="M316.11,124.13a9.42,9.42,0,0,1-12-13.36Z"/><path class="cls-4" d="M342,153a8.19,8.19,0,1,1-10.74-12l3.13,3.48Z"/><path class="cls-5" d="M315.54,142.82a5.71,5.71,0,1,1-1.75-7.89A5.71,5.71,0,0,1,315.54,142.82Z"/><path class="cls-5" d="M295.92,127.43a5.7,5.7,0,0,1-6.42,2.41l.87-11.14a5.71,5.71,0,0,1,5.55,8.73Z"/><path class="cls-5" d="M318,162.37a4,4,0,1,1-1.23-5.58A4,4,0,0,1,318,162.37Z"/><path class="cls-6" d="M299.27,181.3l-14.2,4.75v0l.66-8.39,1.78-22.73,1.88-23.8L291,110.28l1-13Z"/><path class="cls-7" d="M351.65,163.76s-1.52,1.34-4.23,3.38c-9.35,7.06-32.86,22.5-56.66,19.89a45.15,45.15,0,0,1-5.69-1S315.52,158.38,351.65,163.76Z"/><path class="cls-8" d="M346.69,165c-9.35,7.05-32.86,22.49-56.66,19.88C298.51,178.35,320.68,163.67,346.69,165Z"/><polygon class="cls-9" points="300.66 87.14 296.67 93.48 299.64 100.36 292.38 98.53 286.75 103.48 286.25 96.01 279.8 92.19 286.75 89.4 288.39 82.09 293.2 87.84 300.66 87.14"/><path class="cls-9" d="M371.17,147.37c-3.8,0-3.81,5.91,0,5.91S375,147.37,371.17,147.37Z"/><path class="cls-4" d="M371.17,126.65c-3.8,0-3.81,5.91,0,5.91S375,126.65,371.17,126.65Z"/><path class="cls-10" d="M269.57,153.33c-3.8,0-3.81,5.91,0,5.91S273.38,153.33,269.57,153.33Z"/><path class="cls-3" d="M366.27,166.82c-2.74,0-2.74,4.25,0,4.25S369,166.82,366.27,166.82Z"/><path class="cls-11" d="M276.3,128c-2.74,0-2.74,4.25,0,4.25S279,128,276.3,128Z"/><path class="cls-11" d="M342,95.18c-2.73,0-2.73,4.25,0,4.25S344.75,95.18,342,95.18Z"/><path class="cls-11" d="M351.06,174.88a1.54,1.54,0,0,0,0,3.07A1.54,1.54,0,0,0,351.06,174.88Z"/><path class="cls-3" d="M270.89,110.65a1.54,1.54,0,0,0,0,3.07A1.54,1.54,0,0,0,270.89,110.65Z"/><path class="cls-4" d="M274.81,170.19a1.54,1.54,0,0,0,0,3.07A1.54,1.54,0,0,0,274.81,170.19Z"/><path class="cls-4" d="M245.57,175.57c-2.81,0-2.81,4.37,0,4.37S248.38,175.57,245.57,175.57Z"/><path class="cls-11" d="M356.71,130.58c.31,2.67,0,5.83-1.72,7.91a9.57,9.57,0,0,0-3.94-2,8.68,8.68,0,0,0-1.67-.27,9,9,0,0,0-1.72,0,30.3,30.3,0,0,0-3.61.81,13.28,13.28,0,0,1-1.65.3,5,5,0,0,1-4.53-1.48,10.24,10.24,0,0,0,1-1.32,8.05,8.05,0,0,0,4.48-1.32c.33-.19.66-.4,1-.6a24.33,24.33,0,0,1,3.29-1.95,10.31,10.31,0,0,1,2.14-.66,13.76,13.76,0,0,1,1.71-.2,12.84,12.84,0,0,1,2.15,0A10.14,10.14,0,0,1,356.71,130.58Z"/><path class="cls-12" d="M353.61,129.85l-.45,7.41a9.07,9.07,0,0,0-2.11-.79l.41-6.65A12.84,12.84,0,0,1,353.61,129.85Z"/><path class="cls-12" d="M349.75,130l-.37,6.18a9,9,0,0,0-1.72,0,30.3,30.3,0,0,0-3.61.81l.27-4.42a24.33,24.33,0,0,1,3.29-1.95A10.31,10.31,0,0,1,349.75,130Z"/><path class="cls-3" d="M360.38,105.1c2,1.21,4,3.13,4.56,5.41a7.43,7.43,0,0,0-1.83.61,7.74,7.74,0,0,0-1.67,1,8.69,8.69,0,0,0-1.08,1,7.48,7.48,0,0,0-.88,1.21,25.23,25.23,0,0,0-1.37,2.93,13.31,13.31,0,0,1-.67,1.3A4.38,4.38,0,0,1,354,121a9.12,9.12,0,0,0-.4-1.38,7,7,0,0,0,1.48-3.8c0-.33.08-.67.1-1a21.52,21.52,0,0,1,.41-3.32,9.18,9.18,0,0,1,.69-1.83,12.09,12.09,0,0,1,.76-1.29,13,13,0,0,1,1.17-1.47A8.94,8.94,0,0,1,360.38,105.1Z"/><path class="cls-13" d="M358.22,106.86l4.89,4.26a7.74,7.74,0,0,0-1.67,1l-4.39-3.82A13,13,0,0,1,358.22,106.86Z"/><path class="cls-13" d="M356.29,109.62l4.07,3.55a7.48,7.48,0,0,0-.88,1.21,25.23,25.23,0,0,0-1.37,2.93l-2.92-2.54a21.52,21.52,0,0,1,.41-3.32A9.18,9.18,0,0,1,356.29,109.62Z"/><path class="cls-9" d="M329,111.58a6.84,6.84,0,0,1,4.95-1.12,5.68,5.68,0,0,0-.22,1.37,6,6,0,0,0,.11,1.4,5.46,5.46,0,0,0,.29,1,6.14,6.14,0,0,0,.48,1,17.81,17.81,0,0,0,1.41,1.83,10.41,10.41,0,0,1,.62.86,3.16,3.16,0,0,1,.35,3,6,6,0,0,0-1-.2,5.07,5.07,0,0,0-1.93-2.2l-.61-.4a14.91,14.91,0,0,1-2-1.35,6.79,6.79,0,0,1-.94-1,7.85,7.85,0,0,1-.57-.92,8,8,0,0,1-.55-1.23A6.49,6.49,0,0,1,329,111.58Z"/><path class="cls-14" d="M329.39,113.53l4.32-1.7a6,6,0,0,0,.11,1.4l-3.88,1.53A8,8,0,0,1,329.39,113.53Z"/><path class="cls-14" d="M330.51,115.68l3.6-1.42a6.14,6.14,0,0,0,.48,1,17.81,17.81,0,0,0,1.41,1.83l-2.58,1a14.91,14.91,0,0,1-2-1.35A6.79,6.79,0,0,1,330.51,115.68Z"/></g></g></svg>