<?xml version="1.0" encoding="utf-8"?>
<!-- Generator: Adobe Illustrator 24.3.0, SVG Export Plug-In . SVG Version: 6.00 Build 0)  -->
<svg version="1.1" id="Layer_1" xmlns="http://www.w3.org/2000/svg" xmlns:xlink="http://www.w3.org/1999/xlink" x="0px" y="0px"
	 viewBox="0 0 500 500" style="enable-background:new 0 0 500 500;" xml:space="preserve">
<style type="text/css">
	.st0{display:none;}
	.st1{display:inline;fill:#FFFFFF;}
	.st2{fill:#FF458F;}
	.st3{fill:#FFC800;}
	.st4{fill:#FFA000;}
	.st5{opacity:0.4;fill:#FFFFFF;enable-background:new    ;}
	.st6{fill:#AC125B;}
	.st7{fill:#C1C1C1;}
	.st8{fill:#C692F1;}
	.st9{fill:#009BCD;}
	.st10{fill:#00DFB3;}
	.st11{fill:#37F8CB;}
	.st12{fill:#FF97C8;}
	.st13{fill:#E1C0FF;}
</style>
<g>
	<g id="BACKGROUND" class="st0">
		<rect y="0" class="st1" width="500" height="500"/>
	</g>
	<g id="OBJECTS">
		<path class="st2" d="M351.6,163.8l-52.4,17.5l-14.2,4.8l0,0l0.6-8.4l1-12.4l0.8-10.3l0.6-8.2l1.2-15.6l0.1-1.3l0.9-11.1l0.7-8.4
			l1-13l11.8,13.1l0.3,0.3l12,13.4l1.9,2.2l8,8.9l5.3,5.9l3.1,3.5l7.6,8.5L351.6,163.8z"/>
		<path class="st3" d="M296.8,161.1c-2.1,3.4-6.2,5-10.1,4.1l0.8-10.3l0.6-8.2c5.2-0.4,9.7,3.6,10.1,8.8
			C298.4,157.4,297.9,159.4,296.8,161.1L296.8,161.1z"/>
		<path class="st3" d="M316.1,124.1c-4.7,2.1-10.3,0-12.5-4.7c-1.3-2.8-1.1-6,0.5-8.7L316.1,124.1z"/>
		<path class="st3" d="M342,153c-2.8,3.6-7.9,4.2-11.5,1.5c-3.6-2.8-4.2-7.9-1.5-11.5c0.6-0.8,1.4-1.5,2.2-2l3.1,3.5L342,153z"/>
		<path class="st4" d="M315.5,142.8c-1.7,2.7-5.2,3.4-7.9,1.7c-2.7-1.7-3.4-5.2-1.7-7.9c1.7-2.7,5.2-3.4,7.9-1.7
			C316.5,136.6,317.2,140.2,315.5,142.8C315.5,142.8,315.5,142.8,315.5,142.8z"/>
		<path class="st4" d="M295.9,127.4c-1.4,2.1-4,3.1-6.4,2.4l0.9-11.1c3.1-0.4,6,1.8,6.4,4.9C296.9,125,296.6,126.3,295.9,127.4
			L295.9,127.4z"/>
		<path class="st4" d="M318,162.4c-1.2,1.8-3.7,2.4-5.5,1.2s-2.4-3.7-1.2-5.5c1.2-1.8,3.6-2.4,5.5-1.2
			C318.6,158,319.2,160.4,318,162.4C318,162.3,318,162.3,318,162.4z"/>
		<path class="st5" d="M299.3,181.3l-14.2,4.8l0,0l0.7-8.4l1.8-22.7l1.9-23.8l1.6-20.9l1-13L299.3,181.3z"/>
		<path class="st6" d="M351.6,163.8c0,0-1.5,1.3-4.2,3.4c-9.4,7.1-32.9,22.5-56.7,19.9c-1.9-0.2-3.8-0.5-5.7-1
			C285.1,186,315.5,158.4,351.6,163.8z"/>
		<path class="st7" d="M346.7,165c-9.4,7.1-32.9,22.5-56.7,19.9C298.5,178.4,320.7,163.7,346.7,165z"/>
		<polygon class="st8" points="300.7,87.1 296.7,93.5 299.6,100.4 292.4,98.5 286.8,103.5 286.2,96 279.8,92.2 286.8,89.4 
			288.4,82.1 293.2,87.8 		"/>
		<path class="st8" d="M371.2,147.4c-3.8,0-3.8,5.9,0,5.9S375,147.4,371.2,147.4z"/>
		<path class="st3" d="M371.2,126.6c-3.8,0-3.8,5.9,0,5.9S375,126.6,371.2,126.6z"/>
		<path class="st9" d="M269.6,153.3c-3.8,0-3.8,5.9,0,5.9S273.4,153.3,269.6,153.3z"/>
		<path class="st2" d="M366.3,166.8c-2.7,0-2.7,4.2,0,4.2S369,166.8,366.3,166.8z"/>
		<path class="st10" d="M276.3,128c-2.7,0-2.7,4.3,0,4.3S279,128,276.3,128z"/>
		<path class="st10" d="M342,95.2c-2.7,0-2.7,4.2,0,4.2S344.8,95.2,342,95.2z"/>
		<path class="st10" d="M351.1,174.9c-0.8,0.1-1.5,0.8-1.4,1.7c0.1,0.8,0.7,1.4,1.4,1.4c0.8-0.1,1.5-0.8,1.4-1.7
			C352.4,175.5,351.8,174.9,351.1,174.9z"/>
		<path class="st2" d="M270.9,110.6c-0.8,0.1-1.5,0.8-1.4,1.7c0.1,0.8,0.7,1.4,1.4,1.4c0.8-0.1,1.5-0.8,1.4-1.7
			C272.2,111.3,271.6,110.7,270.9,110.6z"/>
		<path class="st3" d="M274.8,170.2c-0.8,0.1-1.5,0.8-1.4,1.7c0.1,0.8,0.7,1.4,1.4,1.4c0.8-0.1,1.5-0.8,1.4-1.7
			C276.2,170.8,275.6,170.3,274.8,170.2z"/>
		<path class="st3" d="M245.6,175.6c-2.8,0-2.8,4.4,0,4.4S248.4,175.6,245.6,175.6z"/>
		<path class="st10" d="M356.7,130.6c0.3,2.7,0,5.8-1.7,7.9c-1.1-1-2.5-1.6-3.9-2c-0.5-0.1-1.1-0.2-1.7-0.3c-0.6-0.1-1.1-0.1-1.7,0
			c-1.2,0.2-2.4,0.5-3.6,0.8c-0.5,0.1-1.1,0.2-1.6,0.3c-1.7,0.3-3.4-0.3-4.5-1.5c0.4-0.4,0.7-0.9,1-1.3c1.6,0,3.1-0.4,4.5-1.3
			c0.3-0.2,0.7-0.4,1-0.6c1-0.7,2.1-1.4,3.3-1.9c0.7-0.3,1.4-0.5,2.1-0.7c0.6-0.1,1.1-0.2,1.7-0.2c0.7-0.1,1.4-0.1,2.1,0
			C354.7,129.9,355.7,130.2,356.7,130.6z"/>
		<path class="st11" d="M353.6,129.9l-0.5,7.4c-0.7-0.4-1.4-0.6-2.1-0.8l0.4-6.6C352.2,129.8,352.9,129.8,353.6,129.9z"/>
		<path class="st11" d="M349.8,130l-0.4,6.2c-0.6-0.1-1.1-0.1-1.7,0c-1.2,0.2-2.4,0.5-3.6,0.8l0.3-4.4c1-0.7,2.1-1.4,3.3-1.9
			C348.3,130.3,349,130.1,349.8,130z"/>
		<path class="st2" d="M360.4,105.1c2,1.2,4,3.1,4.6,5.4c-0.6,0.1-1.2,0.3-1.8,0.6c-0.6,0.3-1.2,0.6-1.7,1c-0.4,0.3-0.7,0.6-1.1,1
			c-0.3,0.4-0.6,0.8-0.9,1.2c-0.5,0.9-1,1.9-1.4,2.9c-0.2,0.4-0.4,0.9-0.7,1.3c-0.7,1.3-2,2.3-3.4,2.4c-0.1-0.5-0.2-0.9-0.4-1.4
			c0.9-1.1,1.4-2.4,1.5-3.8c0-0.3,0.1-0.7,0.1-1c0.1-1.1,0.2-2.2,0.4-3.3c0.2-0.6,0.4-1.2,0.7-1.8c0.2-0.4,0.5-0.9,0.8-1.3
			c0.4-0.5,0.7-1,1.2-1.5C358.8,106.2,359.6,105.6,360.4,105.1z"/>
		<path class="st12" d="M358.2,106.9l4.9,4.3c-0.6,0.3-1.2,0.6-1.7,1l-4.4-3.8C357.4,107.8,357.8,107.3,358.2,106.9z"/>
		<path class="st12" d="M356.3,109.6l4.1,3.6c-0.3,0.4-0.6,0.8-0.9,1.2c-0.5,0.9-1,1.9-1.4,2.9l-2.9-2.5c0.1-1.1,0.2-2.2,0.4-3.3
			C355.8,110.8,356,110.2,356.3,109.6z"/>
		<path class="st8" d="M329,111.6c1.4-1,3.2-1.4,5-1.1c-0.1,0.4-0.2,0.9-0.2,1.4c0,0.5,0,0.9,0.1,1.4c0.1,0.3,0.2,0.7,0.3,1
			c0.1,0.3,0.3,0.7,0.5,1c0.4,0.6,0.9,1.3,1.4,1.8c0.2,0.3,0.4,0.6,0.6,0.9c0.6,0.9,0.7,2,0.4,3c-0.3-0.1-0.7-0.2-1-0.2
			c-0.4-0.9-1.1-1.7-1.9-2.2l-0.6-0.4c-0.7-0.4-1.4-0.8-2-1.3c-0.3-0.3-0.7-0.6-0.9-1c-0.2-0.3-0.4-0.6-0.6-0.9
			c-0.2-0.4-0.4-0.8-0.5-1.2C329.2,113,329,112.3,329,111.6z"/>
		<path class="st13" d="M329.4,113.5l4.3-1.7c0,0.5,0,0.9,0.1,1.4l-3.9,1.5C329.7,114.4,329.5,114,329.4,113.5z"/>
		<path class="st13" d="M330.5,115.7l3.6-1.4c0.1,0.3,0.3,0.7,0.5,1c0.4,0.6,0.9,1.3,1.4,1.8l-2.6,1c-0.7-0.4-1.4-0.8-2-1.3
			C331.1,116.4,330.8,116.1,330.5,115.7z"/>
	</g>
</g>
</svg>
