<?xml version="1.0" encoding="utf-8"?>
<!-- Generator: Adobe Illustrator 24.3.0, SVG Export Plug-In . SVG Version: 6.00 Build 0)  -->
<svg version="1.1" id="Layer_1" xmlns="http://www.w3.org/2000/svg" xmlns:xlink="http://www.w3.org/1999/xlink" x="0px" y="0px"
	 viewBox="0 0 500 500" style="enable-background:new 0 0 500 500;" xml:space="preserve">
<style type="text/css">
	.st0{fill:#FF458F;}
	.st1{fill:#FFC800;}
	.st2{fill:#FFA000;}
	.st3{opacity:0.4;fill:#FFFFFF;enable-background:new    ;}
	.st4{fill:#AC125B;}
	.st5{fill:#C1C1C1;}
	.st6{fill:#C692F1;}
	.st7{fill:#009BCD;}
	.st8{fill:#00DFB3;}
	.st9{fill:#37F8CB;}
	.st10{fill:#FF97C8;}
	.st11{fill:#E1C0FF;}
</style>
<g>
	<g id="OBJECTS">
		<path class="st0" d="M388.6,320.8l-169.3,56.7l-45.9,15.4l0,0l2.1-27.1l3.2-40l2.6-33.4l2.1-26.6l4-50.3l0.3-4.1l2.8-36l2.1-27.2
			l3.2-42l38,42.4l1,1.1l38.8,43.2l6.2,6.9l25.9,28.7l17,19l10.1,11.2l24.5,27.4L388.6,320.8z"/>
		<path class="st1" d="M211.3,312.4c-6.9,10.9-20,16.2-32.5,13.3l2.6-33.4l2.1-26.6c16.8-1.2,31.4,11.5,32.5,28.3
			C216.5,300.4,214.8,306.9,211.3,312.4L211.3,312.4z"/>
		<path class="st1" d="M273.8,192.8c-15.3,6.9-33.4,0.1-40.3-15.2c-4.1-9-3.5-19.5,1.5-28L273.8,192.8z"/>
		<path class="st1" d="M357.5,286.1c-8.9,11.6-25.5,13.7-37.1,4.8c-11.6-8.9-13.7-25.5-4.8-37.1c2-2.6,4.4-4.8,7.2-6.5l10.1,11.2
			L357.5,286.1z"/>
		<path class="st2" d="M271.9,253.2c-5.5,8.6-16.9,11.1-25.5,5.6c-8.6-5.5-11.1-16.9-5.6-25.5c5.5-8.6,16.9-11.1,25.5-5.6
			C274.9,233.1,277.4,244.5,271.9,253.2C272,253.1,272,253.1,271.9,253.2z"/>
		<path class="st2" d="M208.5,203.4c-4.4,6.9-12.9,10.1-20.7,7.8l2.8-36c10.1-1.3,19.4,5.8,20.7,15.9
			C211.8,195.4,210.9,199.8,208.5,203.4L208.5,203.4z"/>
		<path class="st2" d="M279.9,316.3c-3.9,6-11.9,7.7-17.9,3.8c-6-3.9-7.7-11.9-3.8-17.9c3.8-5.9,11.7-7.6,17.7-3.9
			c6.1,3.8,7.9,11.8,4.1,17.8C280,316.2,279.9,316.3,279.9,316.3z"/>
		<path class="st3" d="M219.4,377.5l-45.9,15.4l0,0l2.1-27.1l5.8-73.5l6.1-76.9l5.2-67.4l3.2-42L219.4,377.5z"/>
		<path class="st4" d="M388.7,320.8c0,0-4.9,4.3-13.7,10.9c-30.2,22.8-106.2,72.7-183.1,64.3c-6.2-0.7-12.3-1.8-18.4-3.2
			C173.5,392.8,271.9,303.4,388.7,320.8z"/>
		<path class="st5" d="M372.6,324.8c-30.2,22.8-106.2,72.7-183.1,64.3C216.9,368,288.6,320.5,372.6,324.8z"/>
		<polygon class="st6" points="223.9,73.2 211,93.7 220.6,115.9 197.1,110 178.9,126 177.3,101.9 156.4,89.5 178.9,80.5 184.2,56.9 
			199.7,75.5 		"/>
		<path class="st6" d="M451.7,267.9c-12.3,0-12.3,19.1,0,19.1C464.1,287,464.1,267.9,451.7,267.9z"/>
		<path class="st1" d="M451.7,200.9c-12.3,0-12.3,19.1,0,19.1C464.1,220,464.1,200.9,451.7,200.9z"/>
		<path class="st7" d="M123.4,287.1c-12.3,0-12.3,19.1,0,19.1S135.7,287.1,123.4,287.1z"/>
		<path class="st0" d="M435.9,330.7c-8.9,0-8.9,13.7,0,13.7S444.7,330.7,435.9,330.7z"/>
		<path class="st8" d="M145.1,205.3c-8.9,0-8.9,13.7,0,13.7C154,219,153.9,205.3,145.1,205.3z"/>
		<path class="st8" d="M357.5,99.2c-8.8,0-8.8,13.7,0,13.7S366.4,99.2,357.5,99.2z"/>
		<path class="st8" d="M386.7,356.8c-2.7,0.2-4.8,2.6-4.6,5.4c0.2,2.4,2.1,4.4,4.6,4.6c2.7-0.2,4.8-2.6,4.6-5.4
			C391.1,358.9,389.2,357,386.7,356.8z"/>
		<path class="st0" d="M127.6,149.2c-2.7,0.2-4.8,2.6-4.6,5.4c0.2,2.4,2.1,4.4,4.6,4.6c2.7-0.2,4.8-2.6,4.6-5.4
			C132,151.3,130.1,149.4,127.6,149.2z"/>
		<path class="st1" d="M140.3,341.6c-2.7,0.2-4.8,2.6-4.6,5.4c0.2,2.4,2.1,4.4,4.6,4.6c2.7-0.2,4.8-2.6,4.6-5.4
			C144.7,343.7,142.7,341.8,140.3,341.6z"/>
		<path class="st1" d="M45.8,359c-9.1,0-9.1,14.1,0,14.1S54.9,359,45.8,359z"/>
		<path class="st8" d="M405,213.6c1,8.6,0,18.8-5.6,25.6c-3.7-3.1-8-5.3-12.7-6.5c-1.8-0.5-3.6-0.8-5.4-0.9c-1.8-0.2-3.7-0.2-5.6,0
			c-3.9,0.6-7.8,1.5-11.7,2.6c-1.8,0.4-3.5,0.8-5.3,1c-5.4,1-10.9-0.8-14.6-4.8c1.2-1.3,2.3-2.8,3.2-4.3c5.1,0,10.2-1.4,14.5-4.3
			c1.1-0.6,2.1-1.3,3.2-1.9c3.4-2.4,6.9-4.5,10.6-6.3c2.2-1,4.5-1.7,6.9-2.1c1.8-0.3,3.7-0.5,5.5-0.6c2.3-0.2,4.6-0.2,6.9,0
			C398.5,211.4,401.9,212.2,405,213.6z"/>
		<path class="st9" d="M395,211.2l-1.5,23.9c-2.2-1.1-4.4-2-6.8-2.6l1.3-21.5C390.4,211,392.7,211,395,211.2z"/>
		<path class="st9" d="M382.5,211.7l-1.2,20c-1.8-0.2-3.7-0.2-5.6,0c-3.9,0.6-7.8,1.5-11.7,2.6L365,220c3.4-2.4,6.9-4.5,10.6-6.3
			C377.8,212.8,380.1,212.1,382.5,211.7z"/>
		<path class="st0" d="M416.9,131.3c6.5,3.9,12.9,10.1,14.7,17.5c-2,0.4-4,1.1-5.9,2c-1.9,0.8-3.7,1.9-5.4,3.2
			c-1.3,1-2.4,2.1-3.5,3.2c-1.1,1.2-2,2.5-2.8,3.9c-1.7,3.1-3.2,6.2-4.4,9.5c-0.6,1.4-1.4,2.8-2.2,4.2c-2.1,4.4-6.3,7.3-11.1,7.9
			c-0.3-1.5-0.7-3-1.3-4.5c2.8-3.5,4.4-7.8,4.8-12.3c0-1.1,0.3-2.2,0.3-3.2c0.2-3.6,0.6-7.2,1.3-10.7c0.5-2,1.3-4,2.2-5.9
			c0.7-1.4,1.6-2.8,2.5-4.2c1.1-1.7,2.4-3.3,3.8-4.8C411.9,134.8,414.2,132.8,416.9,131.3z"/>
		<path class="st10" d="M409.9,136.9l15.8,13.8c-1.9,0.8-3.7,1.9-5.4,3.2l-14.2-12.3C407.3,140,408.5,138.4,409.9,136.9z"/>
		<path class="st10" d="M403.6,145.9l13.2,11.5c-1.1,1.2-2,2.5-2.8,3.9c-1.7,3.1-3.2,6.2-4.4,9.5l-9.4-8.2c0.2-3.6,0.6-7.2,1.3-10.7
			C402,149.7,402.7,147.7,403.6,145.9z"/>
		<path class="st6" d="M315.5,152.2c4.7-3.2,10.4-4.5,16-3.6c-0.4,1.4-0.7,2.9-0.7,4.4c-0.1,1.5,0.1,3,0.4,4.5
			c0.2,1.1,0.5,2.2,0.9,3.2c0.4,1.1,0.9,2.2,1.6,3.2c1.4,2.1,2.9,4,4.6,5.9c0.7,0.9,1.4,1.8,2,2.8c2,2.8,2.4,6.5,1.1,9.7
			c-1.1-0.3-2.1-0.5-3.2-0.6c-1.3-2.9-3.5-5.4-6.2-7.1l-2-1.3c-2.3-1.3-4.4-2.7-6.5-4.4c-1.1-1-2.1-2.1-3-3.2
			c-0.7-0.9-1.3-1.9-1.8-3c-0.7-1.3-1.3-2.6-1.8-4C315.9,156.7,315.5,154.4,315.5,152.2z"/>
		<path class="st11" d="M316.7,158.5l14-5.5c-0.1,1.5,0.1,3,0.4,4.5l-12.5,4.9C317.8,161.2,317.2,159.9,316.7,158.5z"/>
		<path class="st11" d="M320.3,165.4l11.6-4.6c0.4,1.1,0.9,2.2,1.6,3.2c1.4,2.1,2.9,4,4.6,5.9l-8.3,3.2c-2.3-1.3-4.4-2.7-6.5-4.4
			C322.2,167.8,321.2,166.7,320.3,165.4z"/>
	</g>
</g>
</svg>
